<svg xmlns="http://www.w3.org/2000/svg" width="770" height="460" viewBox="0 0 770 460">
<rect width="770" height="460" fill="#ffffff"/>
<text x="26" y="27" font-family="Arial" font-size="19" font-weight="bold">ER-диаграмма: издержки</text>
<g fill="none" stroke="#425466" stroke-width="2">
<path d="M339 102 H382"/><path d="M185 144 V322"/><path d="M550 278 V362 H387"/>
</g>
<rect x="26" y="49" width="313" height="93" rx="5" fill="#fff" stroke="#1b3047" stroke-width="1.5"/>
<path d="M26 79 H339" stroke="#1b3047" stroke-width="1.5"/>
<path d="M91 79 V142 M219 79 V142" stroke="#a7b4c1"/>
<text x="36" y="70" font-family="Arial" font-size="15" font-weight="bold">users</text>
<text x="32" y="96" font-family="Arial" font-size="11" fill="#365a7d">PK N</text>
<text x="98" y="96" font-family="Arial" font-size="12">user_id</text>
<text x="226" y="96" font-family="Arial" font-size="11" fill="#596b7c">INTEGER</text>
<text x="32" y="115" font-family="Arial" font-size="11" fill="#365a7d">N U</text>
<text x="98" y="115" font-family="Arial" font-size="12">user_name</text>
<text x="226" y="115" font-family="Arial" font-size="11" fill="#596b7c">VARCHAR(50)</text>
<text x="32" y="134" font-family="Arial" font-size="11" fill="#365a7d">N</text>
<text x="98" y="134" font-family="Arial" font-size="12">user_password_hash</text>
<text x="226" y="134" font-family="Arial" font-size="11" fill="#596b7c">VARCHAR(255)</text>
<rect x="382" y="49" width="362" height="245" rx="5" fill="#fff" stroke="#1b3047" stroke-width="1.5"/>
<path d="M382 79 H744" stroke="#1b3047" stroke-width="1.5"/>
<path d="M447 79 V294 M624 79 V294" stroke="#a7b4c1"/>
<text x="392" y="70" font-family="Arial" font-size="15" font-weight="bold">costs</text>
<text x="388" y="96" font-family="Arial" font-size="11" fill="#365a7d">PK N</text>
<text x="454" y="96" font-family="Arial" font-size="12">cost_id</text>
<text x="631" y="96" font-family="Arial" font-size="11" fill="#596b7c">INTEGER</text>
<text x="388" y="115" font-family="Arial" font-size="11" fill="#365a7d">N</text>
<text x="454" y="115" font-family="Arial" font-size="12">cost_name</text>
<text x="631" y="115" font-family="Arial" font-size="11" fill="#596b7c">VARCHAR(100)</text>
<text x="388" y="134" font-family="Arial" font-size="11" fill="#365a7d"></text>
<text x="454" y="134" font-family="Arial" font-size="12">cost_description</text>
<text x="631" y="134" font-family="Arial" font-size="11" fill="#596b7c">VARCHAR(500)</text>
<text x="388" y="153" font-family="Arial" font-size="11" fill="#365a7d">N</text>
<text x="454" y="153" font-family="Arial" font-size="12">cost_status</text>
<text x="631" y="153" font-family="Arial" font-size="11" fill="#596b7c">VARCHAR(10)</text>
<text x="388" y="172" font-family="Arial" font-size="11" fill="#365a7d">N</text>
<text x="454" y="172" font-family="Arial" font-size="12">cost_image_url</text>
<text x="631" y="172" font-family="Arial" font-size="11" fill="#596b7c">VARCHAR(500)</text>
<text x="388" y="191" font-family="Arial" font-size="11" fill="#365a7d">N</text>
<text x="454" y="191" font-family="Arial" font-size="12">cost_video_url</text>
<text x="631" y="191" font-family="Arial" font-size="11" fill="#596b7c">VARCHAR(500)</text>
<text x="388" y="210" font-family="Arial" font-size="11" fill="#365a7d"></text>
<text x="454" y="210" font-family="Arial" font-size="12">cost_behavior</text>
<text x="631" y="210" font-family="Arial" font-size="11" fill="#596b7c">VARCHAR(16)</text>
<text x="388" y="229" font-family="Arial" font-size="11" fill="#365a7d"></text>
<text x="454" y="229" font-family="Arial" font-size="12">cost_code</text>
<text x="631" y="229" font-family="Arial" font-size="11" fill="#596b7c">INTEGER</text>
<text x="388" y="248" font-family="Arial" font-size="11" fill="#365a7d">N</text>
<text x="454" y="248" font-family="Arial" font-size="12">cost_created_at</text>
<text x="631" y="248" font-family="Arial" font-size="11" fill="#596b7c">TIMESTAMPTZ</text>
<text x="388" y="267" font-family="Arial" font-size="11" fill="#365a7d">FK N</text>
<text x="454" y="267" font-family="Arial" font-size="12">cost_creator_id</text>
<text x="631" y="267" font-family="Arial" font-size="11" fill="#596b7c">INTEGER</text>
<text x="388" y="286" font-family="Arial" font-size="11" fill="#365a7d"></text>
<text x="454" y="286" font-family="Arial" font-size="12">cost_formed_at</text>
<text x="631" y="286" font-family="Arial" font-size="11" fill="#596b7c">TIMESTAMPTZ</text>
<rect x="69" y="322" width="318" height="93" rx="5" fill="#fff" stroke="#1b3047" stroke-width="1.5"/>
<path d="M69 352 H387" stroke="#1b3047" stroke-width="1.5"/>
<path d="M134 352 V415 M267 352 V415" stroke="#a7b4c1"/>
<text x="79" y="343" font-family="Arial" font-size="15" font-weight="bold">cost_likes</text>
<text x="75" y="369" font-family="Arial" font-size="11" fill="#365a7d">PK N</text>
<text x="141" y="369" font-family="Arial" font-size="12">cost_like_id</text>
<text x="274" y="369" font-family="Arial" font-size="11" fill="#596b7c">INTEGER</text>
<text x="75" y="388" font-family="Arial" font-size="11" fill="#365a7d">FK N</text>
<text x="141" y="388" font-family="Arial" font-size="12">user_id</text>
<text x="274" y="388" font-family="Arial" font-size="11" fill="#596b7c">INTEGER</text>
<text x="75" y="407" font-family="Arial" font-size="11" fill="#365a7d">FK N</text>
<text x="141" y="407" font-family="Arial" font-size="12">cost_id</text>
<text x="274" y="407" font-family="Arial" font-size="11" fill="#596b7c">INTEGER</text>
</svg>